Coordinates
version=1
nRows=17
nColumns=36
inDegrees=yes

Units are S.I. units (second, meters, Newtons, ...)
If the header above contains a line with 'inDegrees', this indicates whether rotational values are in degrees (yes) or radians (no).

endheader
time	pelvis_tilt	pelvis_list	pelvis_rotation	pelvis_tx	pelvis_ty	pelvis_tz	hip_flexion_r	hip_adduction_r	hip_rotation_r	knee_angle_r	knee_angle_r_beta	ankle_angle_r	subtalar_angle_r	mtp_angle_r	hip_flexion_l	hip_adduction_l	hip_rotation_l	knee_angle_l	knee_angle_l_beta	ankle_angle_l	subtalar_angle_l	mtp_angle_l	lumbar_extension	lumbar_bending	lumbar_rotation	arm_flex_r	arm_add_r	arm_rot_r	elbow_flex_r	pro_sup_r	arm_flex_l	arm_add_l	arm_rot_l	elbow_flex_l	pro_sup_l
      3.38333330	     -4.21195417	     -1.29675687	      2.93461349	      0.37347257	      1.38181246	      0.04255759	     12.33422435	      0.97233133	     -1.29744429	     40.44364532	      0.70587477	    -15.07466074	    -20.07547995	     -7.49999987	      5.70549151	     -2.26058846	      4.03536700	     33.45357626	      0.58387505	    -16.46908940	     -5.52954858	     -7.49999987	     -3.96652672	     -0.08827494	     -6.38482392	      6.69754897	    -49.20544602	      0.06199205	    105.41016297	     85.24396780	      2.64423012	    -40.00599971	    -22.06038537	    106.41791494	     74.29166486
      3.40000000	     -3.54440545	     -1.38060567	      2.51890203	      0.38742017	      1.39209807	      0.04182932	     13.57564423	      0.76740149	     -1.61888006	     40.40125504	      0.70513492	    -14.68509495	    -21.42397161	     -7.49999987	      7.06002793	     -2.02833056	      4.54037466	     36.44627098	      0.63610743	    -17.24726762	     -5.69146423	     -7.49999987	     -4.81833384	      0.17725224	     -6.46871307	      3.75728599	    -50.99195171	     -0.97402611	    105.19133853	     84.62118728	     -1.14147836	    -40.63806294	    -24.76307994	    106.01102963	     73.49652103
      3.41666670	     -3.10013633	     -1.12417122	      2.20030826	      0.40359106	      1.39750888	      0.04109570	     14.62564070	      0.09395729	     -1.85585330	     39.48558390	      0.68915345	    -14.19214306	    -22.25546702	     -7.49999987	      8.90721346	     -1.42413347	      4.43444962	     39.01654713	      0.68096721	    -17.47291498	     -5.65590101	     -7.49999987	     -5.89414911	      0.03975664	     -6.96642556	      0.60665604	    -52.29211584	     -2.89039418	    104.46166937	     83.83674858	     -5.88226824	    -41.00024959	    -28.92876680	    106.04264795	     72.12312262
      3.43333330	     -2.86219190	     -0.71802475	      2.10111487	      0.41811284	      1.40273139	      0.04421463	     15.40405746	     -0.54826318	     -2.23545586	     37.23235121	      0.64982712	    -14.49798529	    -22.57557128	     -7.49999987	     10.89857070	     -1.01999859	      4.08252186	     40.37225264	      0.70462873	    -17.95911569	     -6.54490079	     -7.49999987	     -6.79366554	     -0.37271379	     -7.46414197	     -2.73981531	    -53.53556175	     -4.31984189	    103.75312393	     83.24559058	    -10.81320279	    -41.29442424	    -32.52650823	    105.44623004	     70.91136940
      3.45000000	     -2.99589261	     -0.30636755	      2.41056151	      0.43401234	      1.39454658	      0.04304397	     16.71382607	     -1.39075529	     -2.94757806	     35.29643337	      0.61603898	    -14.06265064	    -22.11728801	     -7.49999987	     13.17671717	     -0.54192133	      3.80878427	     40.84631680	      0.71290272	    -16.58674281	     -6.97760353	     -7.49999987	     -7.70331207	     -0.79351563	     -7.98085850	     -7.07992762	    -55.03242148	     -6.73840646	    103.87323805	     82.55249679	    -16.41053390	    -41.94668762	    -37.24337978	    105.41333461	     69.66003673
      3.46666670	     -3.44918411	      0.18325659	      2.76547694	      0.45199678	      1.38680224	      0.04576961	     17.89862308	     -2.11364805	     -3.69369879	     32.62882037	      0.56948035	    -14.42345225	    -20.38096084	     -7.49999987	     15.24251436	     -0.21848782	      2.96912455	     40.06684160	      0.69929831	    -15.64128353	     -7.41161435	     -7.49999987	     -7.81277544	     -1.18009380	     -8.78748654	    -11.14562037	    -56.14335757	     -7.81550246	    103.13506126	     82.02170509	    -19.19713937	    -41.16932478	    -41.65187607	    102.71603096	     68.98528057
      3.48333330	     -4.15196300	      0.26214666	      2.73915867	      0.47114583	      1.37473812	      0.04689592	     19.11265856	     -2.33179962	     -4.37361374	     30.00507225	      0.52368730	    -15.70627539	    -18.46134828	     -7.49999987	     17.06979274	     -0.31588106	      2.30770852	     37.56653448	      0.65565972	    -15.28966035	     -6.73580852	     -7.49999987	     -7.45020649	     -0.86412723	     -9.41356326	    -15.04922014	    -58.08147991	     -8.46717135	    101.72772853	     81.67673522	    -21.75776063	    -40.03002370	    -45.66072260	     99.32079930	     68.67507346
      3.50000000	     -4.78902135	      0.39233198	      2.79132777	      0.48880726	      1.37016376	      0.04811638	     19.87929635	     -2.49556278	     -4.88914512	     26.45557227	      0.46173684	    -16.17659197	    -15.19495184	     -7.49999987	     18.37223146	     -0.40258737	      1.83798470	     33.76833283	      0.58936859	    -14.77717628	     -5.95848516	     -7.49999987	     -7.84326239	     -0.81453547	    -10.42059000	    -20.12745101	    -58.93437966	    -11.15875463	    100.82220475	     81.06357930	    -29.08744572	    -38.31558238	    -52.06007630	     97.36273219	     68.56412620
      3.51666670	     -5.19571846	      0.45861776	      2.58192593	      0.50798553	      1.35712826	      0.04885743	     20.06948811	     -2.57751857	     -4.91327635	     23.07664368	      0.40276341	    -17.63923252	    -12.47546528	     -7.49999987	     19.18365991	     -0.46842398	      1.04354142	     29.04132173	      0.50686668	    -15.57465154	     -4.59796803	     -7.49999987	     -7.88508399	     -0.83228176	    -10.98502529	    -24.35615593	    -59.69875615	    -12.40355522	     97.76923685	     80.68990756	    -36.20458574	    -36.39611984	    -55.93630891	     93.92005801	     68.44871576
      3.53333330	     -5.43654649	      0.43812879	      2.69246494	      0.52374870	      1.34112893	      0.05025981	     20.16702852	     -2.77610149	     -5.36818006	     19.56507845	      0.34147504	    -20.33921115	    -10.32533307	     -7.49999987	     19.74884801	     -0.54529388	      0.07665651	     24.15413885	      0.42156925	    -16.59496475	     -3.17575226	     -7.49999987	     -8.22679011	     -0.94330295	    -11.84546067	    -28.45640526	    -59.85735308	    -13.54232050	     94.33061121	     80.26637660	    -43.24173240	    -33.50050994	    -59.22017115	     91.37222924	     68.37719940
      3.55000000	     -5.42111407	      0.40668172	      2.21781929	      0.54811614	      1.32100152	      0.05316347	     19.91093200	     -2.69031152	     -6.46184733	     16.28349775	      0.28420065	    -24.23645448	     -9.24603294	     -7.49999987	     19.72058817	     -0.84283681	     -0.96425749	     19.57569662	      0.34166036	    -19.56737746	     -1.98210523	     -7.49999987	     -8.33898538	     -1.25090011	    -12.16293935	    -32.35355899	    -59.56481822	    -13.75552082	     90.84620670	     80.38504948	    -48.71721475	    -30.06833855	    -60.50345604	     88.02419084	     68.40778541
      3.56666670	     -5.56338297	      0.23788521	      1.74300361	      0.56364633	      1.30100730	      0.05404101	     20.04793018	     -2.37254080	     -7.32791479	     13.26565425	      0.23152934	    -26.42426339	     -7.50801067	     -7.49999987	     20.32198830	     -1.22617225	     -2.15692674	     15.57802816	      0.27188788	    -22.67327212	      0.06505918	     -7.49999987	     -8.67538536	     -1.36143926	    -11.15115234	    -38.39407246	    -56.55988437	    -17.44230440	     88.00024499	     74.06049304	    -52.02996494	    -27.23903775	    -60.10270823	     84.46848246	     67.89442297
      3.58333330	     -5.49640718	      0.03407903	      1.78811591	      0.58598702	      1.27612345	      0.05398193	     19.74704231	     -2.20638875	     -8.15373582	     10.21386946	      0.17826565	    -28.85230753	     -5.24205590	     -7.49999987	     20.65504592	     -1.39711200	     -3.07102724	     12.42109068	      0.21678893	    -24.84078718	      1.69641858	     -7.49999987	     -8.92181573	     -0.98158497	     -8.81259292	    -46.82372665	    -51.19177647	    -23.98344071	     86.50582691	     73.24902595	    -52.81221829	    -26.54411804	    -56.40874155	     79.42963083	     67.55751210
      3.60000000	     -5.30029211	     -0.07683013	      1.51135823	      0.60608224	      1.24709793	      0.05419600	     19.53935175	     -2.13533769	     -8.58082773	      8.43296523	      0.14718301	    -29.42273005	     -3.86673855	     -7.49999987	     20.98125416	     -1.59556951	     -3.73673619	     10.41317905	      0.18174426	    -26.32162018	      2.76091836	     -7.49999987	     -8.99669127	     -0.80631292	     -7.17241057	    -50.71114298	    -46.20335561	    -26.87324811	     84.07425962	     73.74817176	    -53.54896660	    -24.83875022	    -53.29423454	     74.55239179	     67.34654974
      3.61666670	     -5.04211869	     -0.19342675	      1.39629962	      0.62615618	      1.22029934	      0.05718375	     19.27381294	     -2.11686386	     -8.87241695	      7.02777418	      0.12265780	    -30.07187168	     -2.91708713	     -7.49999987	     21.22659129	     -1.91901651	     -3.84495398	      8.96074675	      0.15639453	    -27.06919369	      3.69684180	     -7.49999987	     -8.92716614	     -1.13130754	     -6.74026398	    -50.95389437	    -42.27939982	    -26.06917026	     80.36296724	     73.70645819	    -54.52628871	    -21.69412525	    -51.76591663	     70.34373700	     67.31082472
      3.63333330	     -4.67616417	     -0.24619341	      1.37346858	      0.64706987	      1.18609409	      0.05774422	     19.06570603	     -2.17556313	     -8.36264046	      6.48687410	      0.11321731	    -29.54502380	     -1.86636496	     -7.49999987	     21.64947471	     -2.29545747	     -3.76423470	      8.87246078	      0.15485365	    -27.55925405	      3.11490301	     -7.49999987	     -8.77414973	     -1.40044341	     -6.39980074	    -50.40253125	    -38.83758744	    -24.85043690	     76.82697491	     73.53303925	    -54.44571136	    -18.90058500	    -50.40124087	     65.75775641	     67.16166445
      3.65000000	     -4.24123628	     -0.00081026	      1.16403498	      0.66553749	      1.14968226	      0.05739848	     19.18780955	     -2.57768479	     -7.81931717	      7.65064246	      0.13352890	    -28.69331559	     -1.45344361	     -7.49999987	     22.31908801	     -2.47809562	     -3.63130907	     10.43454468	      0.18211716	    -27.77028974	      1.32147168	     -7.49999987	     -8.62061343	     -1.85000041	     -5.70082765	    -49.13319294	    -35.40383148	    -23.56497441	     73.32014458	     73.15330345	    -53.80614848	    -16.01275379	    -49.43904760	     61.72693466	     66.89323107
